<svg width="24" height="24" viewBox="0 0 24 24" fill="none" xmlns="http://www.w3.org/2000/svg">
<path d="M12.7529 5.62695C15.6085 2.36392 21 4.3137 21 8.96875C20.9999 11.0683 19.6955 13.1121 17.8115 15.1094C16.8857 16.0909 15.8618 17.0191 14.8633 17.9004C13.8797 18.7685 12.8961 19.6131 12.1172 20.3799C12.0967 20.3999 12.0573 20.4209 12 20.4209C11.9427 20.4209 11.9033 20.3999 11.8828 20.3799C11.1039 19.6131 10.1203 18.7685 9.13672 17.9004C8.1382 17.0191 7.11434 16.0909 6.18848 15.1094C4.30447 13.1121 3.00007 11.0683 3 8.96875C3 4.31369 8.39153 2.36392 11.2471 5.62695L12 6.4873L12.7529 5.62695Z" fill="white" fill-opacity="0.2" stroke="white" stroke-width="2" stroke-linecap="round"/>
</svg>
