<svg width="214" height="77" viewBox="0 0 214 77" fill="none" xmlns="http://www.w3.org/2000/svg">
<path d="M30.8843 73.6637V65.2637H31.6523V73.6637H30.8843ZM31.6523 69.8597V69.1637H35.3123V69.8597H31.6523ZM31.6523 65.9597V65.2637H35.7203V65.9597H31.6523Z" fill="white"/>
<path d="M37.2358 70.3757C37.2358 69.7277 37.3558 69.2037 37.5958 68.8037C37.8438 68.4037 38.1598 68.1117 38.5438 67.9277C38.9358 67.7357 39.3478 67.6397 39.7798 67.6397V68.2997C39.4278 68.2997 39.0878 68.3637 38.7598 68.4917C38.4398 68.6117 38.1758 68.8197 37.9678 69.1157C37.7598 69.4037 37.6558 69.7997 37.6558 70.3037L37.2358 70.3757ZM36.9358 73.6637V67.6637H37.6558V73.6637H36.9358Z" fill="white"/>
<path d="M43.395 73.8077C42.819 73.8077 42.307 73.6757 41.859 73.4117C41.419 73.1397 41.071 72.7677 40.815 72.2957C40.567 71.8237 40.443 71.2797 40.443 70.6637C40.443 70.0477 40.567 69.5037 40.815 69.0317C41.063 68.5597 41.403 68.1917 41.835 67.9277C42.275 67.6557 42.775 67.5197 43.335 67.5197C43.903 67.5197 44.383 67.6597 44.775 67.9397C45.175 68.2117 45.479 68.5917 45.687 69.0797C45.895 69.5597 45.999 70.1157 45.999 70.7477H45.279C45.279 70.2437 45.207 69.7997 45.063 69.4157C44.919 69.0317 44.703 68.7317 44.415 68.5157C44.127 68.2917 43.767 68.1797 43.335 68.1797C42.911 68.1797 42.535 68.2877 42.207 68.5037C41.879 68.7117 41.623 69.0037 41.439 69.3797C41.255 69.7477 41.163 70.1757 41.163 70.6637C41.163 71.1517 41.259 71.5837 41.451 71.9597C41.643 72.3277 41.907 72.6197 42.243 72.8357C42.579 73.0437 42.963 73.1477 43.395 73.1477C43.859 73.1477 44.251 73.0357 44.571 72.8117C44.899 72.5797 45.155 72.2837 45.339 71.9237L45.939 72.2957C45.787 72.5917 45.587 72.8557 45.339 73.0877C45.099 73.3117 44.815 73.4877 44.487 73.6157C44.159 73.7437 43.795 73.8077 43.395 73.8077ZM40.935 70.7477V70.0877H45.483V70.7477H40.935Z" fill="white"/>
<path d="M49.9106 73.8077C49.3346 73.8077 48.8226 73.6757 48.3746 73.4117C47.9346 73.1397 47.5866 72.7677 47.3306 72.2957C47.0826 71.8237 46.9586 71.2797 46.9586 70.6637C46.9586 70.0477 47.0826 69.5037 47.3306 69.0317C47.5786 68.5597 47.9186 68.1917 48.3506 67.9277C48.7906 67.6557 49.2906 67.5197 49.8506 67.5197C50.4186 67.5197 50.8986 67.6597 51.2906 67.9397C51.6906 68.2117 51.9946 68.5917 52.2026 69.0797C52.4106 69.5597 52.5146 70.1157 52.5146 70.7477H51.7946C51.7946 70.2437 51.7226 69.7997 51.5786 69.4157C51.4346 69.0317 51.2186 68.7317 50.9306 68.5157C50.6426 68.2917 50.2826 68.1797 49.8506 68.1797C49.4266 68.1797 49.0506 68.2877 48.7226 68.5037C48.3946 68.7117 48.1386 69.0037 47.9546 69.3797C47.7706 69.7477 47.6786 70.1757 47.6786 70.6637C47.6786 71.1517 47.7746 71.5837 47.9666 71.9597C48.1586 72.3277 48.4226 72.6197 48.7586 72.8357C49.0946 73.0437 49.4786 73.1477 49.9106 73.1477C50.3746 73.1477 50.7666 73.0357 51.0866 72.8117C51.4146 72.5797 51.6706 72.2837 51.8546 71.9237L52.4546 72.2957C52.3026 72.5917 52.1026 72.8557 51.8546 73.0877C51.6146 73.3117 51.3306 73.4877 51.0026 73.6157C50.6746 73.7437 50.3106 73.8077 49.9106 73.8077ZM47.4506 70.7477V70.0877H51.9986V70.7477H47.4506Z" fill="white"/>
<path d="M60.9743 71.1317L57.3263 65.7077L57.6023 65.4917L57.9023 65.2637L61.3463 70.3637L60.9743 71.1317ZM57.1343 73.6637V65.2637H57.9023V73.6637H57.1343ZM60.9743 71.1317L60.6263 70.3637L64.0583 65.2637L64.3583 65.4917L64.6223 65.6957L60.9743 71.1317ZM64.0583 73.6637V65.2637H64.8263V73.6637H64.0583Z" fill="white"/>
<path d="M69.5161 73.8077C68.9401 73.8077 68.4281 73.6757 67.9801 73.4117C67.5401 73.1397 67.1921 72.7677 66.9361 72.2957C66.6881 71.8237 66.5641 71.2797 66.5641 70.6637C66.5641 70.0477 66.6881 69.5037 66.9361 69.0317C67.1841 68.5597 67.5281 68.1917 67.9681 67.9277C68.4161 67.6557 68.9241 67.5197 69.4921 67.5197C70.0681 67.5197 70.5761 67.6557 71.0161 67.9277C71.4641 68.1917 71.8121 68.5597 72.0601 69.0317C72.3081 69.5037 72.4321 70.0477 72.4321 70.6637C72.4321 71.2797 72.3081 71.8237 72.0601 72.2957C71.8121 72.7677 71.4681 73.1397 71.0281 73.4117C70.5881 73.6757 70.0841 73.8077 69.5161 73.8077ZM69.5161 73.1477C69.9481 73.1477 70.3281 73.0437 70.6561 72.8357C70.9841 72.6197 71.2401 72.3277 71.4241 71.9597C71.6161 71.5837 71.7121 71.1517 71.7121 70.6637C71.7121 70.1757 71.6161 69.7477 71.4241 69.3797C71.2401 69.0037 70.9801 68.7117 70.6441 68.5037C70.3081 68.2877 69.9241 68.1797 69.4921 68.1797C69.0601 68.1797 68.6761 68.2877 68.3401 68.5037C68.0121 68.7117 67.7521 69.0037 67.5601 69.3797C67.3761 69.7477 67.2841 70.1757 67.2841 70.6637C67.2841 71.1517 67.3801 71.5837 67.5721 71.9597C67.7641 72.3277 68.0281 72.6197 68.3641 72.8357C68.7001 73.0437 69.0841 73.1477 69.5161 73.1477Z" fill="white"/>
<path d="M73.8733 73.6637V65.2637H74.5933V72.5477L74.5573 73.6637H73.8733ZM76.7053 73.8077C76.2013 73.8077 75.7533 73.6757 75.3613 73.4117C74.9693 73.1397 74.6613 72.7677 74.4373 72.2957C74.2213 71.8157 74.1133 71.2717 74.1133 70.6637C74.1133 70.0477 74.2213 69.5037 74.4373 69.0317C74.6613 68.5597 74.9693 68.1917 75.3613 67.9277C75.7533 67.6557 76.2013 67.5197 76.7053 67.5197C77.2333 67.5197 77.7013 67.6557 78.1093 67.9277C78.5173 68.1917 78.8373 68.5597 79.0693 69.0317C79.3013 69.5037 79.4173 70.0477 79.4173 70.6637C79.4173 71.2717 79.3013 71.8157 79.0693 72.2957C78.8373 72.7677 78.5173 73.1397 78.1093 73.4117C77.7013 73.6757 77.2333 73.8077 76.7053 73.8077ZM76.5613 73.1597C76.9773 73.1597 77.3453 73.0557 77.6653 72.8477C77.9853 72.6317 78.2373 72.3357 78.4213 71.9597C78.6053 71.5837 78.6973 71.1517 78.6973 70.6637C78.6973 70.1757 78.6053 69.7437 78.4213 69.3677C78.2453 68.9917 77.9973 68.6997 77.6773 68.4917C77.3573 68.2757 76.9893 68.1677 76.5733 68.1677C76.1893 68.1677 75.8453 68.2757 75.5413 68.4917C75.2453 68.6997 75.0133 68.9917 74.8453 69.3677C74.6773 69.7437 74.5933 70.1757 74.5933 70.6637C74.5933 71.1517 74.6773 71.5837 74.8453 71.9597C75.0133 72.3357 75.2453 72.6317 75.5413 72.8477C75.8373 73.0557 76.1773 73.1597 76.5613 73.1597Z" fill="white"/>
<path d="M80.9057 73.6637L80.9297 67.6637H81.6497L81.6257 73.6637H80.9057ZM81.2777 66.1037C81.1497 66.1037 81.0377 66.0557 80.9417 65.9597C80.8457 65.8637 80.7977 65.7517 80.7977 65.6237C80.7977 65.4877 80.8457 65.3757 80.9417 65.2877C81.0377 65.1917 81.1497 65.1437 81.2777 65.1437C81.4137 65.1437 81.5257 65.1917 81.6137 65.2877C81.7097 65.3757 81.7577 65.4877 81.7577 65.6237C81.7577 65.7517 81.7097 65.8637 81.6137 65.9597C81.5257 66.0557 81.4137 66.1037 81.2777 66.1037Z" fill="white"/>
<path d="M83.4944 73.6637L83.5184 65.2637H84.2384L84.2144 73.6637H83.4944Z" fill="white"/>
<path d="M88.6294 73.8077C88.0534 73.8077 87.5414 73.6757 87.0934 73.4117C86.6534 73.1397 86.3054 72.7677 86.0494 72.2957C85.8014 71.8237 85.6774 71.2797 85.6774 70.6637C85.6774 70.0477 85.8014 69.5037 86.0494 69.0317C86.2974 68.5597 86.6374 68.1917 87.0694 67.9277C87.5094 67.6557 88.0094 67.5197 88.5694 67.5197C89.1374 67.5197 89.6174 67.6597 90.0094 67.9397C90.4094 68.2117 90.7134 68.5917 90.9214 69.0797C91.1294 69.5597 91.2334 70.1157 91.2334 70.7477H90.5134C90.5134 70.2437 90.4414 69.7997 90.2974 69.4157C90.1534 69.0317 89.9374 68.7317 89.6494 68.5157C89.3614 68.2917 89.0014 68.1797 88.5694 68.1797C88.1454 68.1797 87.7694 68.2877 87.4414 68.5037C87.1134 68.7117 86.8574 69.0037 86.6734 69.3797C86.4894 69.7477 86.3974 70.1757 86.3974 70.6637C86.3974 71.1517 86.4934 71.5837 86.6854 71.9597C86.8774 72.3277 87.1414 72.6197 87.4774 72.8357C87.8134 73.0437 88.1974 73.1477 88.6294 73.1477C89.0934 73.1477 89.4854 73.0357 89.8054 72.8117C90.1334 72.5797 90.3894 72.2837 90.5734 71.9237L91.1734 72.2957C91.0214 72.5917 90.8214 72.8557 90.5734 73.0877C90.3334 73.3117 90.0494 73.4877 89.7214 73.6157C89.3934 73.7437 89.0294 73.8077 88.6294 73.8077ZM86.1694 70.7477V70.0877H90.7174V70.7477H86.1694Z" fill="white"/>
<path d="M101.661 73.6637L98.229 65.2637H99.021L102.477 73.6637H101.661ZM94.773 73.6637L98.229 65.2637H99.021L95.589 73.6637H94.773ZM96.405 71.0597V70.3637H100.845V71.0597H96.405Z" fill="white"/>
<path d="M103.558 76.0637V67.6637H104.23L104.278 68.7677V76.0637H103.558ZM106.39 73.8077C105.886 73.8077 105.438 73.6757 105.046 73.4117C104.654 73.1397 104.346 72.7677 104.122 72.2957C103.906 71.8157 103.798 71.2717 103.798 70.6637C103.798 70.0477 103.906 69.5037 104.122 69.0317C104.346 68.5597 104.654 68.1917 105.046 67.9277C105.438 67.6557 105.886 67.5197 106.39 67.5197C106.918 67.5197 107.386 67.6557 107.794 67.9277C108.202 68.1917 108.522 68.5597 108.754 69.0317C108.986 69.5037 109.102 70.0477 109.102 70.6637C109.102 71.2717 108.986 71.8157 108.754 72.2957C108.522 72.7677 108.202 73.1397 107.794 73.4117C107.386 73.6757 106.918 73.8077 106.39 73.8077ZM106.246 73.1597C106.662 73.1597 107.03 73.0557 107.35 72.8477C107.67 72.6317 107.922 72.3357 108.106 71.9597C108.29 71.5837 108.382 71.1517 108.382 70.6637C108.382 70.1757 108.29 69.7437 108.106 69.3677C107.93 68.9917 107.682 68.6997 107.362 68.4917C107.042 68.2757 106.674 68.1677 106.258 68.1677C105.874 68.1677 105.53 68.2757 105.226 68.4917C104.93 68.6997 104.698 68.9917 104.53 69.3677C104.362 69.7437 104.278 70.1757 104.278 70.6637C104.278 71.1517 104.362 71.5837 104.53 71.9597C104.698 72.3357 104.93 72.6317 105.226 72.8477C105.522 73.0557 105.862 73.1597 106.246 73.1597Z" fill="white"/>
<path d="M110.601 76.0637V67.6637H111.273L111.321 68.7677V76.0637H110.601ZM113.433 73.8077C112.929 73.8077 112.481 73.6757 112.089 73.4117C111.697 73.1397 111.389 72.7677 111.165 72.2957C110.949 71.8157 110.841 71.2717 110.841 70.6637C110.841 70.0477 110.949 69.5037 111.165 69.0317C111.389 68.5597 111.697 68.1917 112.089 67.9277C112.481 67.6557 112.929 67.5197 113.433 67.5197C113.961 67.5197 114.429 67.6557 114.837 67.9277C115.245 68.1917 115.565 68.5597 115.797 69.0317C116.029 69.5037 116.145 70.0477 116.145 70.6637C116.145 71.2717 116.029 71.8157 115.797 72.2957C115.565 72.7677 115.245 73.1397 114.837 73.4117C114.429 73.6757 113.961 73.8077 113.433 73.8077ZM113.289 73.1597C113.705 73.1597 114.073 73.0557 114.393 72.8477C114.713 72.6317 114.965 72.3357 115.149 71.9597C115.333 71.5837 115.425 71.1517 115.425 70.6637C115.425 70.1757 115.333 69.7437 115.149 69.3677C114.973 68.9917 114.725 68.6997 114.405 68.4917C114.085 68.2757 113.717 68.1677 113.301 68.1677C112.917 68.1677 112.573 68.2757 112.269 68.4917C111.973 68.6997 111.741 68.9917 111.573 69.3677C111.405 69.7437 111.321 70.1757 111.321 70.6637C111.321 71.1517 111.405 71.5837 111.573 71.9597C111.741 72.3357 111.973 72.6317 112.269 72.8477C112.565 73.0557 112.905 73.1597 113.289 73.1597Z" fill="white"/>
<path d="M123.908 73.8557C123.3 73.8557 122.756 73.7237 122.276 73.4597C121.804 73.1877 121.432 72.8157 121.16 72.3437C120.896 71.8717 120.764 71.3317 120.764 70.7237H121.532C121.532 71.1957 121.632 71.6157 121.832 71.9837C122.04 72.3517 122.324 72.6397 122.684 72.8477C123.052 73.0557 123.468 73.1597 123.932 73.1597C124.404 73.1597 124.82 73.0557 125.18 72.8477C125.548 72.6397 125.832 72.3517 126.032 71.9837C126.24 71.6157 126.344 71.1957 126.344 70.7237H127.112C127.112 71.3317 126.976 71.8717 126.704 72.3437C126.432 72.8157 126.052 73.1877 125.564 73.4597C125.084 73.7237 124.532 73.8557 123.908 73.8557ZM120.764 70.7237V65.2637H121.532V70.7237H120.764ZM126.344 70.7237V65.2637H127.112V70.7237H126.344Z" fill="white"/>
<path d="M129.392 73.6637V65.2637H130.16V73.6637H129.392Z" fill="white"/>
<path d="M137.212 73.6637V65.9597H137.98V73.6637H137.212ZM134.476 65.9597V65.2637H140.716V65.9597H134.476Z" fill="white"/>
<path d="M143.614 73.8077C143.038 73.8077 142.526 73.6757 142.078 73.4117C141.638 73.1397 141.29 72.7677 141.034 72.2957C140.786 71.8237 140.662 71.2797 140.662 70.6637C140.662 70.0477 140.786 69.5037 141.034 69.0317C141.282 68.5597 141.622 68.1917 142.054 67.9277C142.494 67.6557 142.994 67.5197 143.554 67.5197C144.122 67.5197 144.602 67.6597 144.994 67.9397C145.394 68.2117 145.698 68.5917 145.906 69.0797C146.114 69.5597 146.218 70.1157 146.218 70.7477H145.498C145.498 70.2437 145.426 69.7997 145.282 69.4157C145.138 69.0317 144.922 68.7317 144.634 68.5157C144.346 68.2917 143.986 68.1797 143.554 68.1797C143.13 68.1797 142.754 68.2877 142.426 68.5037C142.098 68.7117 141.842 69.0037 141.658 69.3797C141.474 69.7477 141.382 70.1757 141.382 70.6637C141.382 71.1517 141.478 71.5837 141.67 71.9597C141.862 72.3277 142.126 72.6197 142.462 72.8357C142.798 73.0437 143.182 73.1477 143.614 73.1477C144.078 73.1477 144.47 73.0357 144.79 72.8117C145.118 72.5797 145.374 72.2837 145.558 71.9237L146.158 72.2957C146.006 72.5917 145.806 72.8557 145.558 73.0877C145.318 73.3117 145.034 73.4877 144.706 73.6157C144.378 73.7437 144.014 73.8077 143.614 73.8077ZM141.154 70.7477V70.0877H145.702V70.7477H141.154Z" fill="white"/>
<path d="M147.537 73.6637V67.6637H148.209L148.257 68.7677V73.6637H147.537ZM151.845 73.6637V70.5917L152.565 70.2317V73.6637H151.845ZM156.153 73.6637V70.5917L156.873 70.2317V73.6637H156.153ZM151.845 70.5917C151.845 69.9277 151.765 69.4237 151.605 69.0797C151.453 68.7357 151.241 68.5037 150.969 68.3837C150.705 68.2557 150.405 68.1917 150.069 68.1917C149.501 68.1917 149.057 68.4037 148.737 68.8277C148.417 69.2437 148.257 69.8277 148.257 70.5797H147.813C147.813 69.9397 147.901 69.3917 148.077 68.9357C148.261 68.4797 148.529 68.1317 148.881 67.8917C149.241 67.6437 149.677 67.5197 150.189 67.5197C150.909 67.5197 151.485 67.7437 151.917 68.1917C152.357 68.6397 152.573 69.3197 152.565 70.2317L151.845 70.5917ZM156.153 70.5917C156.153 69.9277 156.073 69.4237 155.913 69.0797C155.761 68.7357 155.549 68.5037 155.277 68.3837C155.013 68.2557 154.713 68.1917 154.377 68.1917C153.809 68.1917 153.365 68.4037 153.045 68.8277C152.725 69.2437 152.565 69.8277 152.565 70.5797H152.121C152.121 69.9397 152.209 69.3917 152.385 68.9357C152.569 68.4797 152.837 68.1317 153.189 67.8917C153.549 67.6437 153.985 67.5197 154.497 67.5197C155.217 67.5197 155.793 67.7437 156.225 68.1917C156.665 68.6397 156.881 69.3197 156.873 70.2317L156.153 70.5917Z" fill="white"/>
<path d="M158.554 76.0637V67.6637H159.226L159.274 68.7677V76.0637H158.554ZM161.386 73.8077C160.882 73.8077 160.434 73.6757 160.042 73.4117C159.65 73.1397 159.342 72.7677 159.118 72.2957C158.902 71.8157 158.794 71.2717 158.794 70.6637C158.794 70.0477 158.902 69.5037 159.118 69.0317C159.342 68.5597 159.65 68.1917 160.042 67.9277C160.434 67.6557 160.882 67.5197 161.386 67.5197C161.914 67.5197 162.382 67.6557 162.79 67.9277C163.198 68.1917 163.518 68.5597 163.75 69.0317C163.982 69.5037 164.098 70.0477 164.098 70.6637C164.098 71.2717 163.982 71.8157 163.75 72.2957C163.518 72.7677 163.198 73.1397 162.79 73.4117C162.382 73.6757 161.914 73.8077 161.386 73.8077ZM161.242 73.1597C161.658 73.1597 162.026 73.0557 162.346 72.8477C162.666 72.6317 162.918 72.3357 163.102 71.9597C163.286 71.5837 163.378 71.1517 163.378 70.6637C163.378 70.1757 163.286 69.7437 163.102 69.3677C162.926 68.9917 162.678 68.6997 162.358 68.4917C162.038 68.2757 161.67 68.1677 161.254 68.1677C160.87 68.1677 160.526 68.2757 160.222 68.4917C159.926 68.6997 159.694 68.9917 159.526 69.3677C159.358 69.7437 159.274 70.1757 159.274 70.6637C159.274 71.1517 159.358 71.5837 159.526 71.9597C159.694 72.3357 159.926 72.6317 160.222 72.8477C160.518 73.0557 160.858 73.1597 161.242 73.1597Z" fill="white"/>
<path d="M165.537 73.6637L165.561 65.2637H166.281L166.257 73.6637H165.537Z" fill="white"/>
<path d="M171.872 73.6637L171.752 70.4477C171.736 69.9357 171.668 69.5157 171.548 69.1877C171.436 68.8517 171.26 68.5997 171.02 68.4317C170.788 68.2637 170.476 68.1797 170.084 68.1797C169.7 68.1797 169.368 68.2557 169.088 68.4077C168.816 68.5597 168.596 68.7877 168.428 69.0917L167.78 68.8037C167.956 68.5157 168.156 68.2757 168.38 68.0837C168.612 67.8917 168.868 67.7517 169.148 67.6637C169.436 67.5677 169.748 67.5197 170.084 67.5197C170.62 67.5197 171.064 67.6277 171.416 67.8437C171.768 68.0597 172.032 68.3837 172.208 68.8157C172.384 69.2477 172.472 69.7917 172.472 70.4477V73.6637H171.872ZM169.964 73.8077C169.26 73.8077 168.708 73.6477 168.308 73.3277C167.916 72.9997 167.72 72.5477 167.72 71.9717C167.72 71.3797 167.916 70.9197 168.308 70.5917C168.708 70.2637 169.26 70.0997 169.964 70.0997H172.22V70.7597H170.06C169.484 70.7597 169.068 70.8677 168.812 71.0837C168.564 71.2917 168.44 71.5877 168.44 71.9717C168.44 72.3397 168.568 72.6277 168.824 72.8357C169.088 73.0437 169.452 73.1477 169.916 73.1477C170.308 73.1477 170.64 73.0637 170.912 72.8957C171.192 72.7197 171.404 72.4797 171.548 72.1757C171.7 71.8637 171.776 71.5037 171.776 71.0957H172.424C172.424 71.9117 172.208 72.5677 171.776 73.0637C171.344 73.5597 170.74 73.8077 169.964 73.8077Z" fill="white"/>
<path d="M176.384 73.8077C175.832 73.8077 175.4 73.6637 175.088 73.3757C174.776 73.0797 174.62 72.6637 174.62 72.1277V65.7917H175.34V72.1277C175.34 72.4477 175.432 72.6997 175.616 72.8837C175.8 73.0597 176.056 73.1477 176.384 73.1477C176.48 73.1477 176.572 73.1357 176.66 73.1117C176.756 73.0797 176.892 73.0037 177.068 72.8837L177.368 73.5077C177.152 73.6357 176.972 73.7157 176.828 73.7477C176.684 73.7877 176.536 73.8077 176.384 73.8077ZM173.552 68.3237V67.6637H177.248V68.3237H173.552Z" fill="white"/>
<path d="M181.208 73.8077C180.632 73.8077 180.12 73.6757 179.672 73.4117C179.232 73.1397 178.884 72.7677 178.628 72.2957C178.38 71.8237 178.256 71.2797 178.256 70.6637C178.256 70.0477 178.38 69.5037 178.628 69.0317C178.876 68.5597 179.216 68.1917 179.648 67.9277C180.088 67.6557 180.588 67.5197 181.148 67.5197C181.716 67.5197 182.196 67.6597 182.588 67.9397C182.988 68.2117 183.292 68.5917 183.5 69.0797C183.708 69.5597 183.812 70.1157 183.812 70.7477H183.092C183.092 70.2437 183.02 69.7997 182.876 69.4157C182.732 69.0317 182.516 68.7317 182.228 68.5157C181.94 68.2917 181.58 68.1797 181.148 68.1797C180.724 68.1797 180.348 68.2877 180.02 68.5037C179.692 68.7117 179.436 69.0037 179.252 69.3797C179.068 69.7477 178.976 70.1757 178.976 70.6637C178.976 71.1517 179.072 71.5837 179.264 71.9597C179.456 72.3277 179.72 72.6197 180.056 72.8357C180.392 73.0437 180.776 73.1477 181.208 73.1477C181.672 73.1477 182.064 73.0357 182.384 72.8117C182.712 72.5797 182.968 72.2837 183.152 71.9237L183.752 72.2957C183.6 72.5917 183.4 72.8557 183.152 73.0877C182.912 73.3117 182.628 73.4877 182.3 73.6157C181.972 73.7437 181.608 73.8077 181.208 73.8077ZM178.748 70.7477V70.0877H183.296V70.7477H178.748Z" fill="white"/>
<path fill-rule="evenodd" clip-rule="evenodd" d="M55.3981 46.6121C52.0253 46.6121 49.0322 45.9174 46.4182 44.5279C43.8466 43.0964 41.8229 41.1385 40.3474 38.6542C38.8718 36.17 38.134 33.3068 38.134 30.0648C38.134 26.8227 38.8508 23.9595 40.2841 21.4753C41.7597 18.991 43.7834 17.0543 46.3549 15.6647C48.9689 14.2332 51.9411 13.5174 55.2717 13.5174C58.6442 13.5174 61.6164 14.2332 64.1882 15.6647C66.8019 17.0543 68.8256 18.991 70.259 21.4753C71.7346 23.9595 72.4724 26.8227 72.4724 30.0648C72.4724 33.3068 71.7346 36.17 70.259 38.6542C68.8256 41.1385 66.8232 43.0964 64.2514 44.5279C61.6796 45.9174 58.7287 46.6121 55.3981 46.6121ZM60.3605 27.4029C60.3942 27.4619 60.4269 27.5214 60.4585 27.5816C60.642 27.0565 60.6204 26.5975 60.3936 26.2047C60.1284 25.7453 59.6444 25.4837 58.9417 25.4199C58.8772 25.4132 58.8674 25.303 58.9314 25.2921C59.5836 25.1801 60.1682 25.1532 60.6853 25.2113C61.5863 25.3 62.2088 25.6423 62.5529 26.2382C62.897 26.8341 62.8821 27.5444 62.5084 28.369C62.153 29.1831 61.4959 30.0423 60.537 30.9468C59.5737 31.8435 58.3728 32.7071 56.9343 33.5376C55.4775 34.3787 54.111 34.9974 52.8345 35.3938C51.5719 35.772 50.49 35.9167 49.5891 35.828C48.6881 35.7394 48.0656 35.3971 47.7215 34.8011C47.3774 34.2052 47.3832 33.5001 47.7386 32.6861C47.9567 32.2048 48.2753 31.7112 48.6942 31.2054C48.7352 31.156 48.8239 31.2188 48.797 31.277C48.5152 31.9091 48.5068 32.455 48.7721 32.9144C48.9975 33.3048 49.3808 33.5524 49.9219 33.6571L49.9075 33.6319C49.3918 32.7311 49.134 31.693 49.134 30.5174C49.134 29.3418 49.3845 28.3037 49.8854 27.4029C50.401 26.5021 51.1082 25.7999 52.0069 25.296C52.9204 24.777 53.9591 24.5174 55.123 24.5174C56.3016 24.5174 57.3402 24.777 58.239 25.296C59.1524 25.7999 59.8596 26.5021 60.3605 27.4029ZM53.446 36.3156C53.9843 36.4501 54.558 36.5174 55.1672 36.5174C56.3311 36.5174 57.3623 36.2655 58.2611 35.7617C59.1598 35.2426 59.8596 34.5327 60.3605 33.6319C60.7864 32.8879 61.0365 32.05 61.1106 31.1185C60.9132 31.3601 60.7007 31.594 60.4763 31.8094C59.5886 32.65 58.4822 33.4595 57.1567 34.2381C56.8785 34.4015 56.4616 34.5891 56.0031 34.7954C55.0264 35.2349 53.861 35.7593 53.446 36.3156Z" fill="white"/>
<path d="M118.919 15.1806H108.168V46.7595H119.551V29.9595C119.551 28.2332 119.952 26.97 120.753 26.17C121.553 25.3701 122.755 25.0122 124.357 25.0964C125.158 25.1385 125.811 25.3701 126.318 25.7911C126.865 26.2121 127.266 26.8227 127.519 27.6226C127.814 28.3806 127.962 29.3701 127.962 30.5911V46.7595H139.344V29.9595C139.344 28.2332 139.745 26.97 140.546 26.17C141.347 25.3701 142.549 25.0122 144.151 25.0964C144.952 25.1385 145.605 25.3701 146.111 25.7911C146.659 26.2121 147.06 26.8227 147.312 27.6226C147.608 28.3806 147.755 29.3701 147.755 30.5911V46.7595H159.138V28.6964C159.138 23.8121 158.211 20.2121 156.356 17.8963C154.501 15.5805 151.634 14.4227 147.755 14.4227C145.563 14.4227 143.602 15.0332 141.874 16.2542C140.348 17.2952 139.101 18.7794 138.133 20.7067C137.717 19.6212 137.193 18.6844 136.562 17.8963C134.707 15.5805 131.84 14.4227 127.962 14.4227C125.769 14.4227 123.809 15.0332 122.081 16.2542C121.294 16.7904 120.302 17.899 119.363 19.2642L118.919 15.1806Z" fill="white"/>
<path d="M169.458 12.6316C167.771 12.6316 166.296 12 165.031 10.7368C163.766 9.47363 163.134 8 163.134 6.3158C163.134 4.58948 163.766 3.11584 165.031 1.89478C166.296 0.631592 167.771 0 169.458 0C171.186 0 172.662 0.631592 173.884 1.89478C175.149 3.11584 175.781 4.58948 175.781 6.3158C175.781 8 175.149 9.47363 173.884 10.7368C172.662 12 171.186 12.6316 169.458 12.6316Z" fill="white"/>
<path d="M163.766 46.7595V16.6434C163.766 15.8801 164.455 15.3017 165.207 15.4337L-nan -nanL165.207 15.4337C168.019 15.9279 170.896 15.9279 173.708 15.4337L-nan -nanL173.708 15.4337C174.46 15.3017 175.149 15.8801 175.149 16.6434V46.7595H163.766Z" fill="white"/>
<path d="M89.5552 47.5174C87.4472 47.5174 85.4868 47.2226 83.674 46.6331C81.8611 46.0438 80.3012 45.2227 78.9944 44.17C77.7297 43.0753 76.8442 41.7701 76.3384 40.2542L85.3813 36.7174C85.8452 37.8542 86.4988 38.5911 87.3418 38.9279C88.185 39.2227 88.9228 39.3701 89.5552 39.3701C90.2297 39.3701 90.7778 39.2227 91.1994 38.9279C91.6208 38.6332 91.8318 38.2121 91.8318 37.6647C91.8318 37.0753 91.5366 36.5911 90.9463 36.2121C90.3562 35.7911 89.4497 35.4332 88.227 35.1385L85.6343 34.5069C82.8098 33.7911 80.6806 32.549 79.2473 30.7806C77.8139 29.0122 77.0971 26.9489 77.0971 24.5911C77.0971 21.3489 78.2776 18.8437 80.6386 17.0753C83.0417 15.3068 86.2878 14.4227 90.3772 14.4227C92.8647 14.4227 94.9514 14.7385 96.6379 15.3701C98.3664 15.9595 99.7785 16.8016 100.875 17.8963C101.971 18.991 102.814 20.2542 103.404 21.6859L94.6142 25.0332C94.3191 24.1911 93.8132 23.5805 93.0964 23.2016C92.4219 22.8227 91.5788 22.6332 90.5669 22.6332C89.8503 22.6332 89.2812 22.8016 88.8596 23.1385C88.4802 23.4753 88.2905 23.8753 88.2905 24.3384C88.2905 24.8437 88.5854 25.2858 89.1758 25.6647C89.8081 26.0017 90.7566 26.3384 92.0215 26.6752L94.6142 27.3068C96.5534 27.7701 98.24 28.4858 99.6733 29.4543C101.107 30.3806 102.224 31.5384 103.025 32.9279C103.826 34.3175 104.226 35.9174 104.226 37.728C104.226 39.7911 103.615 41.5595 102.393 43.0331C101.17 44.4648 99.4624 45.5805 97.2702 46.3806C95.0779 47.1385 92.5063 47.5174 89.5552 47.5174Z" fill="white"/>
<path fill-rule="evenodd" clip-rule="evenodd" d="M21.3388 26.6797L29.814 19.7935C28.6842 18.5375 27.3453 17.4826 25.7975 16.6288C23.251 15.1581 20.3081 14.4227 16.9688 14.4227C13.6711 14.4227 10.7282 15.1581 8.13994 16.6288C5.59374 18.0563 3.59 20.046 2.12896 22.5982C0.709733 25.1505 0 28.0919 0 31.4227C0 31.4995 0.000388825 31.5762 0.00116648 31.6526C0.00038865 31.7266 0 31.8009 0 31.8753C0 35.1174 0.716797 37.9805 2.15015 40.4648C3.53638 42.7986 5.40633 44.6492 7.75981 46.0169C7.90552 46.1069 8.0531 46.1951 8.20255 46.2814C10.7908 47.709 13.7545 48.4227 17.094 48.4227C17.1013 48.4227 17.1085 48.4227 17.1158 48.4227C17.1231 48.4227 17.1304 48.4227 17.1377 48.4227C20.5103 48.4227 23.4824 47.7069 26.0542 46.2753C28.668 44.8858 30.6917 42.949 32.125 40.4648C33.3358 38.4264 34.0498 36.1328 34.2671 33.5842C34.2789 33.4458 34.1691 33.3279 34.0302 33.3279C33.9115 33.3279 33.8109 33.4151 33.7922 33.5324C33.4808 35.4828 32.8196 37.2633 31.8084 38.8738C31.1268 39.9914 30.3104 40.9907 29.3591 41.8717L21.3328 35.3503C21.6906 34.9874 21.996 34.568 22.249 34.092C22.7442 33.2021 22.9919 32.1736 22.9919 31.0065C22.9919 29.854 22.7442 28.8255 22.249 27.9209C21.9974 27.4552 21.694 27.0415 21.3388 26.6797ZM12.9462 28.45C12.5439 29.2053 12.3428 30.0702 12.3428 31.0448C12.3428 32.0073 12.5439 32.86 12.9462 33.6031C13.3607 34.3463 13.9276 34.9249 14.6469 35.3391C15.3662 35.7654 16.1953 35.9786 17.134 35.9786C18.0727 35.9786 18.9017 35.7654 19.621 35.3391C20.3403 34.9249 20.9011 34.3401 21.3034 33.5848C21.7179 32.8417 21.9252 31.9828 21.9252 31.0083C21.9252 30.0459 21.7179 29.1871 21.3034 28.4317C20.9011 27.6886 20.3403 27.1039 19.621 26.6775C18.9017 26.2633 18.0727 26.0562 17.134 26.0562C16.1953 26.0562 15.3662 26.2694 14.6469 26.6957C13.9276 27.1221 13.3607 27.7069 12.9462 28.45Z" fill="white"/>
<path fill-rule="evenodd" clip-rule="evenodd" d="M200.986 26.6797L209.461 19.7935C208.332 18.5375 206.993 17.4826 205.445 16.6288C202.898 15.1581 199.956 14.4227 196.616 14.4227C193.318 14.4227 190.376 15.1581 187.787 16.6288C185.241 18.0563 183.237 20.046 181.776 22.5982C180.357 25.1505 179.647 28.0919 179.647 31.4227C179.647 31.4995 179.648 31.5762 179.649 31.6526C179.648 31.7266 179.647 31.8009 179.647 31.8753C179.647 35.1174 180.364 37.9805 181.798 40.4648C183.184 42.7986 185.054 44.6492 187.407 46.0169C187.553 46.1069 187.701 46.1951 187.85 46.2814C190.438 47.709 193.402 48.4227 196.741 48.4227C196.749 48.4227 196.756 48.4227 196.763 48.4227C196.771 48.4227 196.778 48.4227 196.785 48.4227C200.158 48.4227 203.13 47.7069 205.702 46.2753C208.315 44.8858 210.339 42.949 211.772 40.4648C212.983 38.4264 213.697 36.1328 213.915 33.5842C213.926 33.4458 213.816 33.3279 213.678 33.3279C213.559 33.3279 213.458 33.4151 213.44 33.5324C213.128 35.4828 212.467 37.2633 211.456 38.8738C210.774 39.9914 209.958 40.9907 209.007 41.8717L200.98 35.3503C201.338 34.9874 201.643 34.568 201.896 34.092C202.392 33.2021 202.639 32.1736 202.639 31.0065C202.639 29.854 202.392 28.8255 201.896 27.9209C201.645 27.4552 201.341 27.0415 200.986 26.6797ZM192.594 28.45C192.191 29.2053 191.99 30.0702 191.99 31.0448C191.99 32.0073 192.191 32.86 192.594 33.6031C193.008 34.3463 193.575 34.9249 194.294 35.3391C195.014 35.7654 195.843 35.9786 196.781 35.9786C197.72 35.9786 198.549 35.7654 199.268 35.3391C199.988 34.9249 200.549 34.3401 200.951 33.5848C201.365 32.8417 201.573 31.9828 201.573 31.0083C201.573 30.0459 201.365 29.1871 200.951 28.4317C200.549 27.6886 199.988 27.1039 199.268 26.6775C198.549 26.2633 197.72 26.0562 196.781 26.0562C195.843 26.0562 195.014 26.2694 194.294 26.6957C193.575 27.1221 193.008 27.7069 192.594 28.45Z" fill="white"/>
</svg>
