<svg width="39" height="38" viewBox="0 0 39 38" fill="none" xmlns="http://www.w3.org/2000/svg">
<path d="M8.41675 7.52148H14.7498C14.8547 7.52148 14.9558 7.56346 15.03 7.6377C15.1041 7.71186 15.1462 7.81219 15.1462 7.91699C15.1462 8.02197 15.1043 8.12303 15.03 8.19727C14.9558 8.27146 14.8547 8.31348 14.7498 8.31348H8.41675C7.68188 8.31348 6.97739 8.60537 6.45776 9.125C5.93818 9.64462 5.64624 10.3491 5.64624 11.084V22.8467L7.67554 20.8027L9.99976 18.4629C10.6209 17.8843 11.4386 17.5625 12.2878 17.5625C13.1371 17.5625 13.9548 17.8843 14.5759 18.4629L18.4841 22.3877L19.324 23.2305L20.1658 22.3896L21.2732 21.2803C21.8779 20.6821 22.695 20.3477 23.5457 20.3477C24.3977 20.3477 25.2151 20.6842 25.8201 21.2842L30.1873 25.6514V22.167C30.1873 22.0622 30.2294 21.9619 30.3035 21.8877C30.3777 21.8135 30.4788 21.7715 30.5837 21.7715C30.6886 21.7716 30.7889 21.8135 30.863 21.8877C30.9372 21.9619 30.9792 22.0621 30.9792 22.167V30.084C30.9792 31.0286 30.6041 31.9345 29.9363 32.6025C29.2682 33.2706 28.3616 33.6465 27.4167 33.6465H8.41675C7.47191 33.6465 6.56531 33.2706 5.89722 32.6025C5.22941 31.9345 4.85428 31.0286 4.85425 30.084V11.084C4.85425 10.1392 5.22916 9.23255 5.89722 8.56445C6.56532 7.89635 7.47191 7.52148 8.41675 7.52148ZM12.2878 18.3223C11.6616 18.3223 11.0596 18.5641 10.6062 18.9961L10.5964 19.0049L10.5867 19.0146L5.99487 23.5898L5.64624 23.9385V30.084C5.64628 30.8188 5.93817 31.5234 6.45776 32.043C6.97739 32.5626 7.68191 32.8545 8.41675 32.8545H27.8298L25.8025 30.8271L19.0095 24.0352L13.991 19.0156L13.9802 19.0059L13.9705 18.9961L13.7937 18.8428C13.366 18.5071 12.836 18.3223 12.2878 18.3223ZM25.6951 4.39746C26.7464 4.27389 27.8118 4.44885 28.7683 4.90234C29.7246 5.35579 30.5335 6.06997 31.1033 6.96191C31.673 7.85401 31.9808 8.88882 31.99 9.94727C31.9991 11.0058 31.7094 12.0464 31.155 12.9482L30.6658 13.7441L31.325 14.4072L34.032 17.1299L34.0408 17.1396L34.0505 17.1484C34.0887 17.1853 34.1187 17.2295 34.1394 17.2783C34.1602 17.3272 34.1716 17.3795 34.1716 17.4326C34.1716 17.4858 34.1602 17.5389 34.1394 17.5879C34.1187 17.6367 34.0887 17.6809 34.0505 17.7178L34.0408 17.7275L34.031 17.7363C33.9942 17.7734 33.9503 17.8031 33.9021 17.8232C33.8539 17.8433 33.802 17.8535 33.7498 17.8535C33.6976 17.8535 33.6456 17.8433 33.5974 17.8232C33.5494 17.8032 33.5062 17.7733 33.4695 17.7363L33.4685 17.7354L30.7449 14.9971L30.0886 14.3369L29.2908 14.8164C28.3859 15.3603 27.3474 15.641 26.2917 15.6279H26.2849C24.8138 15.618 23.4059 15.0269 22.3689 13.9834L22.3669 13.9814L22.0964 13.6914C21.4918 12.995 21.0662 12.1587 20.8591 11.2559C20.6225 10.2241 20.6808 9.14642 21.0281 8.14648C21.3754 7.14649 21.9977 6.26453 22.823 5.60156C23.6483 4.93861 24.6437 4.52106 25.6951 4.39746ZM27.3542 5.31348C26.4105 5.1233 25.4318 5.21808 24.5417 5.58496C23.6517 5.95191 22.8898 6.57494 22.3542 7.375C21.819 8.17487 21.533 9.11566 21.533 10.0781C21.533 11.0408 21.8188 11.9822 22.3542 12.7822C22.8898 13.5823 23.6517 14.2053 24.5417 14.5723C25.4317 14.9391 26.4106 15.0339 27.3542 14.8438C28.298 14.6536 29.164 14.187 29.8425 13.5039C30.7471 12.5933 31.2546 11.3616 31.2546 10.0781C31.2546 8.79468 30.747 7.5629 29.8425 6.65234C29.1641 5.96944 28.2979 5.50365 27.3542 5.31348ZM30.1873 26.7764L29.8425 26.4287L25.2664 21.8213C25.0998 21.6524 24.9096 21.5093 24.7019 21.3965L24.4861 21.293L24.2605 21.2109C24.0318 21.1407 23.7936 21.1045 23.5535 21.1045C23.2333 21.1045 22.916 21.1689 22.6208 21.293C22.3997 21.3859 22.1939 21.5108 22.0105 21.6641L21.8494 21.8125L20.741 22.9053L19.8914 23.7412L20.7322 24.5879L27.8728 31.7754L28.8738 32.7832L29.6882 31.6191C29.9958 31.1793 30.1695 30.6595 30.1873 30.123V26.7764Z" fill="black" stroke="#A0A0A0" stroke-width="2.375"/>
</svg>
